<?xml version="1.0" encoding="utf-8"?>
<!-- Generator: Adobe Illustrator 18.1.1, SVG Export Plug-In . SVG Version: 6.00 Build 0)  -->
<svg version="1.1" id="レイヤー_1" xmlns="http://www.w3.org/2000/svg" xmlns:xlink="http://www.w3.org/1999/xlink" x="0px"
	 y="0px" viewBox="0 0 300 62" enable-background="new 0 0 300 62" xml:space="preserve">
<g>
	<path fill="#FFFFFF" d="M96.654,41.033c0.007-0.344-0.228-0.647-0.563-0.728l-9.068-2.186c-0.231-0.056-0.477,0.004-0.657,0.161
		c-0.172,0.152-0.262,0.376-0.246,0.605c-0.843-0.273-1.645-0.601-2.299-0.99c-1.738-1.036-3.992-3.018-4.861-6.57
		c-0.595-2.435-2.175-6.692-3.22-9.51l-0.752-2.052c-0.205-0.585-0.552-1.257-1.001-1.959l3.646-1.713
		c0.489-0.233,0.692-0.817,0.455-1.305l-1.396-2.852c-0.237-0.485-0.827-0.685-1.309-0.442l-4.795,2.439
		c-0.695-0.591-1.433-1.12-2.192-1.543c-1.018-0.566-2.618-1.375-4.284-2.196l7.916-4.593c0.467-0.272,0.62-0.874,0.34-1.338
		L70.73,1.54c-0.28-0.463-0.884-0.611-1.344-0.327L58.963,7.704c-0.816-0.388-1.376-0.652-1.5-0.711
		c-0.352-0.225-2.361-1.363-5.558-0.123c-3.057,1.185-5.83,2.048-5.857,2.057c-0.233,0.074-2.264,0.74-3.07,1.809
		c-0.836,1.111-3.089,3.651-3.853,4.073c-0.9,0.497-2.028,1.485-2.245,2.632c-0.013,0.067-0.022,0.132-0.027,0.196
		c-0.047,0.502,0.096,0.97,0.42,1.362c0.511,0.618,1.243,0.907,1.877,1.048L0.473,44.14c-0.463,0.284-0.611,0.889-0.331,1.355
		l0.304,0.503c0.28,0.464,0.883,0.618,1.351,0.344l35.771-20.752c-0.036,0.663-0.016,2.329,1.009,3.214
		c0.34,0.295,0.905,0.584,1.751,0.52L3.016,48.305c-0.486,0.242-0.685,0.833-0.447,1.323l0.258,0.527
		c0.24,0.487,0.827,0.691,1.316,0.46l36.598-17.193c-0.378,1.177-0.664,2.281-0.742,3.122c-0.032,0.335-0.031,0.626,0.009,0.865
		c0.259,1.532,0.94,2.582,1.919,2.957c0.48,0.185,1.2,0.244,2.107-0.185c0.2,0.773,0.574,1.752,1.27,2.313
		c0.438,0.353,0.961,0.507,1.51,0.445c1.181-0.132,2.609-1.18,3.555-2.609c0.643-0.974,1.021-2.025,1.121-3.089
		c0.034-0.368,0.03-0.738-0.003-1.108c0.959,0.333,2.343,1.029,3.089,2.413c1.446,2.684,6.747,10.07,10.02,11.598l1.885,0.935
		c2.809,1.429,6.654,3.382,12.07,4.392c0.025,0.01,0.054,0.021,0.081,0.03c-0.047,0.088-0.084,0.182-0.093,0.285
		c-0.026,0.308,0.144,0.6,0.424,0.729l9.42,4.348c0.161,0.075,0.345,0.088,0.515,0.038C89.204,60.814,96.343,58.521,96.654,41.033z
		 M67.678,13.674c0.5,0.278,0.996,0.613,1.475,0.986l-10.602,5.393c-0.408-0.257-0.866-0.525-1.36-0.768l-1.541-0.73
		c-0.92-0.433-2.113-0.992-3.268-1.56l10.196-5.915C64.536,12.037,66.519,13.03,67.678,13.674z M38.327,17.715
		c0.095-0.499,0.745-1.194,1.511-1.618c1.197-0.661,3.767-3.746,4.316-4.475c0.396-0.525,1.642-1.07,2.335-1.291
		c0.023-0.006,2.842-0.884,5.948-2.089c2.671-1.035,4.203-0.034,4.266,0.01c0.032,0.021,0.071,0.045,0.105,0.061
		c0.014,0.006,0.262,0.123,0.671,0.316l-9.546,5.947c-1.647-0.616-3.604,0.016-4.695,1.146c-0.433,0.447-0.744,1.063-0.917,1.757
		c-0.637,1.271-1.712,1.246-1.84,1.236c-0.01-0.001-0.02,0.004-0.032,0.003c-0.028-0.002-0.058-0.008-0.089-0.007
		c-0.385,0.011-1.484-0.083-1.953-0.65C38.323,17.959,38.299,17.858,38.327,17.715z M39.539,27.692
		c-0.519-0.447-0.532-1.655-0.492-2.13c0.015-0.045,0.156-0.455,0.359-1.038l3.934-2.283c0.304,0.418,0.663,0.808,1.073,1.166
		c-0.167,1.487-0.668,2.541-0.674,2.553c-0.001,0.001,0,0.001-0.001,0.002c0,0,0,0,0,0.001c-0.006,0.012-0.628,1.167-3.117,1.827
		C39.881,27.987,39.624,27.765,39.539,27.692z M45.065,26.596c0-0.001,0.002-0.004,0.002-0.004c0.063-0.13,0.449-0.975,0.687-2.212
		c0.651,0.423,1.279,0.833,1.88,1.227l-2.759,1.404C44.94,26.869,45.004,26.728,45.065,26.596z M44.06,38.446
		c-0.643,0.501-1.213,0.697-1.608,0.546c-0.458-0.177-0.83-0.859-0.993-1.828c-0.025-0.145-0.025-0.33-0.004-0.548
		c0.086-0.913,0.541-2.417,1.139-4.066l4.623-2.172c-0.422,0.995-0.79,2.215-0.843,3.487C46.29,35.898,44.363,38.111,44.06,38.446z
		 M79.016,54.074c-0.04-0.014-0.081-0.026-0.122-0.033c-5.247-0.967-9.003-2.878-11.744-4.273l-1.931-0.957
		c-2.814-1.313-7.936-8.345-9.347-10.962c-1.24-2.303-3.69-3.107-4.73-3.352c-0.204-0.691-0.629-1.979-1.138-2.655
		c-0.245-0.324-0.707-0.389-1.03-0.145c-0.324,0.245-0.391,0.707-0.146,1.031c0.379,0.502,0.824,1.852,1.016,2.586
		c0.001,0.003,0.003,0.005,0.004,0.007c0.002,0.006,0.002,0.012,0.003,0.017c0.556,1.862-0.206,3.418-0.709,4.179
		c-0.789,1.191-1.85,1.886-2.491,1.958c-0.162,0.018-0.287-0.02-0.423-0.129c-0.472-0.378-0.775-1.391-0.897-2.116
		c0.654-0.762,2.42-3.02,2.516-5.304c0.082-1.973,1.119-3.91,1.574-4.583l2.233-1.049c1.586,1.087,2.639,1.855,2.928,2.146
		l0.489,0.464c1.042,0.966,3.214,2.978,3.475,5.063c0.369,2.932,3.83,9.674,7.795,11.561c0.367,0.175,0.805,0.019,0.98-0.348
		c0.175-0.367,0.018-0.806-0.348-0.981c-3.477-1.655-6.642-7.831-6.968-10.415c-0.328-2.615-2.674-4.79-3.935-5.958l-0.445-0.422
		c-1.012-1.018-7.534-5.265-9.51-6.543c-1.912-1.236-2.358-2.821-2.453-3.656c-0.112-0.98,0.136-1.946,0.635-2.461
		c0.747-0.774,2.417-1.391,3.609-0.535c1.361,0.975,4.827,2.601,7.121,3.677l1.515,0.718c1.41,0.697,2.614,1.665,2.626,1.674
		c0.168,0.145,4.518,3.87,6.063,4.891c2.078,1.373,3.83,0.507,4.467-0.142c0.281-0.288,0.276-0.745-0.009-1.03
		c-0.283-0.286-0.747-0.286-1.036-0.007c-0.106,0.103-1.074,0.967-2.611-0.049c-0.736-0.487-2.216-1.681-3.513-2.757l10.116-4.752
		c0.43,0.653,0.763,1.279,0.953,1.818l0.761,2.076c1.033,2.785,2.595,6.995,3.17,9.346c0.989,4.047,3.556,6.304,5.537,7.485
		c0.896,0.535,2.004,0.956,3.129,1.29c0.072,3.414-0.352,11.542-5.737,14.17C79.739,54.343,79.17,54.132,79.016,54.074z
		 M88.706,59.393c-0.458-0.212-5.49-2.534-7.574-3.496c4.578-2.234,6.034-7.625,6.426-11.787c0.168-1.797,0.144-3.355,0.097-4.326
		c1.443,0.348,6.603,1.592,7.507,1.81c-0.035,1.259-0.099,2.449-0.203,3.539C93.921,56.167,89.727,58.889,88.706,59.393z"/>
	<g>
		<path fill="#FFFFFF" d="M144.424,7.026c-0.387-0.298-0.865-0.46-1.353-0.46h-0.143h-10.309c-0.489,0-0.965,0.162-1.353,0.46
			l-17.894,13.756c-0.33,0.254-0.392,0.728-0.139,1.058l2.3,2.991c0.243,0.316,0.69,0.422,1.006,0.179
			c0.843-0.648,2.584-1.986,4.645-3.571v12.817v6.31v9.307c0,0.407-0.314,0.755-0.722,0.755c-0.487,0-0.895,0-1.18,0
			c-0.229,0-0.449,0.148-0.449,0.377v4.528c0,0.208,0.169,0.377,0.377,0.377h10.188c0.25,0,0.497-0.044,0.732-0.129l6.09-2.222
			c0.195-0.072,0.296-0.288,0.225-0.484l-1.552-4.253c-0.07-0.193-0.279-0.3-0.471-0.23c-0.946,0.345-3.614,1.319-4.926,1.797
			c-0.474,0.173-0.979,0.238-1.483,0.238c-0.232,0-0.502,0-0.802,0c-0.413,0-0.744-0.341-0.744-0.755v-8.553
			c0-0.417,0.338-0.755,0.754-0.755h9.013c0.475,0,0.927,0.22,1.22,0.593l11.356,14.454c0.147,0.187,0.372,0.297,0.61,0.297h9.536
			c0.209,0,0.377-0.169,0.377-0.377v-4.528c0-0.227-0.215-0.377-0.442-0.377c-1.213,0-4.626,0-6.533,0
			c-0.451,0-0.892-0.184-1.172-0.539c-0.188-0.24-0.416-0.53-0.677-0.861c-0.242-0.309-0.167-0.774,0.198-0.922l2.993-1.209
			c0.193-0.078,0.287-0.298,0.208-0.492l-1.695-4.197c-0.078-0.194-0.298-0.287-0.492-0.209l-4.413,1.782
			c-0.412,0.166-0.889,0.043-1.163-0.307c-0.679-0.864-1.359-1.729-2.002-2.549c-0.184-0.235,0.018-0.559,0.315-0.559h9.668
			c0.208,0,0.377-0.169,0.377-0.377V21.44c1.984,1.526,3.673,2.823,4.547,3.496c0.343,0.264,0.84,0.239,1.103-0.104l2.3-2.991
			c0.254-0.331,0.192-0.804-0.139-1.058L144.424,7.026z M149.224,34.491c0,0.422-0.312,0.794-0.733,0.794c-4.46,0-16.688,0-21.225,0
			c-0.431,0-0.799-0.33-0.799-0.762c0-0.088,0-0.176,0-0.266c0-0.229,0-0.463,0-0.702c0-0.411,0.344-0.732,0.754-0.732h21.248
			c0.434,0,0.755,0.381,0.755,0.815C149.224,33.931,149.224,34.216,149.224,34.491z M149.224,26.755
			c0,0.426-0.329,0.786-0.755,0.786h-21.248c-0.425,0-0.754-0.359-0.754-0.786c0-0.33,0-0.649,0-0.957
			c0-0.402,0.332-0.719,0.733-0.719c4.459,0,16.687,0,21.224,0c0.42,0,0.8,0.299,0.8,0.719
			C149.224,26.106,149.224,26.426,149.224,26.755z M151.865,19.797h-10.624c-0.416,0-0.755-0.338-0.755-0.755v-1.05
			c0-0.209-0.169-0.377-0.377-0.377h-4.527c-0.208,0-0.377,0.168-0.377,0.377v1.05c0,0.417-0.338,0.755-0.755,0.755h-11.129
			c4.069-3.128,8.585-6.6,9.986-7.677c0.215-0.165,0.474-0.272,0.745-0.272c1.646,0,5.841,0,7.538,0
			c0.258,0,0.517,0.059,0.722,0.216c1.309,1.007,5.916,4.548,10.059,7.733H151.865z"/>
		<path fill="#FFFFFF" d="M190.398,24.115h3.773c0.416,0,0.755-0.338,0.755-0.754v-3.962c0-0.417-0.338-0.754-0.755-0.754h-3.773
			c-0.417,0-0.755,0.338-0.755,0.754v3.962C189.643,23.777,189.981,24.115,190.398,24.115z"/>
		<path fill="#FFFFFF" d="M198.132,24.115h3.773c0.416,0,0.754-0.338,0.754-0.754v-3.962c0-0.417-0.338-0.754-0.754-0.754h-3.773
			c-0.417,0-0.755,0.338-0.755,0.754v3.962C197.378,23.777,197.715,24.115,198.132,24.115z"/>
		<path fill="#FFFFFF" d="M287.738,14.683h3.773c0.416,0,0.755-0.338,0.755-0.754V9.967c0-0.417-0.338-0.754-0.755-0.754h-3.773
			c-0.417,0-0.754,0.338-0.754,0.754v3.962C286.983,14.345,287.321,14.683,287.738,14.683z"/>
		<path fill="#FFFFFF" d="M299.245,9.212h-3.773c-0.417,0-0.755,0.338-0.755,0.754v3.962c0,0.417,0.338,0.754,0.755,0.754h3.773
			c0.416,0,0.755-0.338,0.755-0.754V9.967C300,9.55,299.662,9.212,299.245,9.212z"/>
		<path fill="#FFFFFF" d="M250.793,19.708h-2.641h-28.108c-0.208,0-0.377,0.169-0.377,0.377v31.504c0,0.208,0.169,0.377,0.377,0.377
			h30.749c0.208,0,0.377-0.169,0.377-0.377V20.085C251.17,19.876,251.001,19.708,250.793,19.708z M245.133,45.122
			c0,0.424-0.304,0.807-0.729,0.807c-4.262,0-13.596,0-17.91,0c-0.424,0-0.792-0.318-0.792-0.743c0-4.363,0-14.217,0-18.635
			c0-0.442,0.351-0.808,0.792-0.808c4.313,0,13.647,0,17.91,0c0.406,0,0.729,0.337,0.729,0.742
			C245.133,30.85,245.133,40.704,245.133,45.122z"/>
		<path fill="#FFFFFF" d="M294.312,19.534h-2.264h-18.865c-0.208,0-0.377-0.169-0.377-0.377v-0.782c0-0.417-0.338-0.755-0.755-0.755
			h-4.527c-0.42,0-0.755,0.346-0.755,0.766c0,2.171,0,6.472,0,8.353c0,0.225-0.088,0.44-0.218,0.622
			c-0.688,0.962-1.933,2.706-2.578,3.61c-0.236,0.33-0.13,0.783,0.2,1.018l3.684,2.632c0.34,0.242,0.811,0.163,1.053-0.175
			l3.458-4.841c0.285-0.398,0.438-0.879,0.438-1.368v-2.288c0-0.226,0.212-0.377,0.439-0.377c4.494,0,12.164,0,15.478,0
			c0.194,0,0.307,0.195,0.307,0.388c0,3.908,0,11.919,0,14.362c0,0.255-0.094,0.505-0.274,0.685
			c-1.918,1.919-9.297,9.297-11.335,11.334c-0.292,0.292-0.282,0.766,0.009,1.057l3.202,3.202c0.295,0.295,0.772,0.295,1.067,0
			l12.834-12.833c0.34-0.341,0.534-0.807,0.534-1.289V20.289C295.066,19.872,294.728,19.534,294.312,19.534z"/>
		<path fill="#FFFFFF" d="M186.145,27.289c-0.34-0.34-0.805-0.533-1.288-0.533h-0.495h-12.262c-0.417,0-0.755,0.338-0.755,0.755
			v11.507c0,0.417,0.337,0.754,0.755,0.754h4.527c0.418,0,0.754-0.341,0.754-0.758c0-1.227,0-3.722,0-5.81
			c0-0.237,0.211-0.412,0.449-0.412c2.012,0,3.749,0,4.932,0c0.231,0,0.449,0.101,0.612,0.264
			c2.454,2.453,16.086,16.086,19.039,19.039c0.303,0.303,0.794,0.334,1.097,0.03l3.202-3.201c0.295-0.295,0.295-0.773,0-1.067
			L186.145,27.289z"/>
	</g>
</g>
</svg>
